<?xml version="1.0" encoding="iso-8859-1"?>
<!-- Generator: Adobe Illustrator 19.0.0, SVG Export Plug-In . SVG Version: 6.00 Build 0)  -->
<svg version="1.1" id="Capa_1" xmlns="http://www.w3.org/2000/svg" xmlns:xlink="http://www.w3.org/1999/xlink" x="0px" y="0px"
	 viewBox="0 0 512 512" style="enable-background:new 0 0 512 512;" xml:space="preserve">
<path style="fill:#6C7A88;" d="M0,376.017v120.53C0,505.081,6.919,512,15.453,512h481.095c8.534,0,15.453-6.919,15.453-15.453
	v-120.53l-256-41.21L0,376.017z"/>
<path style="fill:#8B9BA9;" d="M512,236.943c0-8.534-6.919-15.453-15.453-15.453h-86.02H101.473h-86.02
	C6.919,221.49,0,228.409,0,236.943v139.074h512V236.943z"/>
<path style="fill:#596775;" d="M481.095,481.095H0v15.453C0,505.081,6.919,512,15.453,512h481.095
	c8.534,0,15.453-6.919,15.453-15.453v-120.53l-30.905-4.975V481.095z"/>
<path style="fill:#6C7A88;" d="M481.095,221.49v154.527H512V236.943c0-8.534-6.919-15.453-15.453-15.453H481.095z"/>
<path style="fill:#596775;" d="M70.567,267.848v30.905c0,8.534,6.919,15.453,15.453,15.453h339.96
	c8.534,0,15.453-6.919,15.453-15.453v-30.905c0-8.534-6.919-15.453-15.453-15.453H86.02
	C77.486,252.395,70.567,259.314,70.567,267.848z"/>
<circle style="fill:#FFCF5D;" cx="256" cy="141.65" r="141.65"/>
<g>
	<path style="fill:#FF983B;" d="M256,229.215c-48.284,0-87.565-39.282-87.565-87.565S207.716,54.085,256,54.085
		s87.565,39.282,87.565,87.565S304.284,229.215,256,229.215z"/>
	<path style="fill:#FF983B;" d="M356.161,41.487L356.161,41.487c-11.472,11.472-13.545,29.252-5.196,43.164
		c25.531,42.544,19.978,98.672-16.657,135.308c-36.635,36.633-92.763,42.185-135.306,16.656
		c-13.912-8.348-31.691-6.275-43.164,5.197l0,0c25.656,25.656,61.108,41.515,100.264,41.487
		c77.819-0.056,141.492-63.73,141.547-141.549C397.677,102.595,381.817,67.144,356.161,41.487z"/>
</g>
<path style="fill:#FFCF5D;" d="M290.997,167.788c0-16.238-11.117-29.925-26.138-33.859v-33.221c1.2,0.723,2.33,1.579,3.347,2.597
	c3.461,3.459,9.071,3.459,12.531-0.001c3.459-3.459,3.459-9.07-0.001-12.53c-4.469-4.468-9.929-7.573-15.877-9.123v-1.135
	c0-4.893-3.967-8.861-8.861-8.861c-4.893,0-8.861,3.967-8.861,8.861v1.139c-15.021,3.933-26.138,17.621-26.138,33.859
	s11.117,29.925,26.138,33.859v33.221c-1.199-0.722-2.328-1.578-3.345-2.595c-3.46-3.458-9.07-3.459-12.531,0.002
	c-3.459,3.46-3.458,9.071,0.002,12.53c4.468,4.467,9.927,7.571,15.874,9.12v1.135c0,4.893,3.967,8.861,8.861,8.861
	c4.893,0,8.861-3.967,8.861-8.861v-1.139C279.882,197.712,290.997,184.025,290.997,167.788z M238.723,115.512
	c0-6.286,3.385-11.782,8.418-14.805v29.61C242.108,127.294,238.723,121.798,238.723,115.512z M264.861,182.592v-29.61
	c5.032,3.024,8.418,8.52,8.418,14.805C273.278,174.072,269.892,179.57,264.861,182.592z"/>
<g>
</g>
<g>
</g>
<g>
</g>
<g>
</g>
<g>
</g>
<g>
</g>
<g>
</g>
<g>
</g>
<g>
</g>
<g>
</g>
<g>
</g>
<g>
</g>
<g>
</g>
<g>
</g>
<g>
</g>
</svg>
