<svg id="Capa_1" enable-background="new 0 0 512 512" height="512" viewBox="0 0 512 512" width="512" xmlns="http://www.w3.org/2000/svg"><g><path d="m364.412 0v512h-360v-392l90-60 30-60z" fill="#e0f4ff"/><path d="m184.412 0h180v512h-180z" fill="#bbdcff"/><path d="m124.412 0h-51.211l-68.789 68.789v51.211h120z" fill="#bbdcff"/><g><g><path d="m468.213 106.199c-52.5-52.5-138.301-52.5-190.801 0-31.5 31.5-45.298 77.401-36.599 121.199l-116.4 116.4v106.202h114.901v-42h42.099v-43h33.8l31.8-31.4c43.801 8.699 89.7-5.099 121.201-36.601 52.499-52.5 52.499-138.3-.001-190.8zm-42.301 106.2c-17.699 17.401-46.199 17.401-63.9 0-17.399-17.699-17.399-46.199 0-63.898 17.1-16.8 46.8-16.8 63.9 0 17.4 17.698 17.4 46.199 0 63.898z" fill="#fdbf00"/></g><path d="m468.213 106.199c-52.5-52.5-138.301-52.5-190.801 0-31.5 31.5-45.298 77.401-36.599 121.199l-56.4 56.4v166.202h54.901v-42h42.099v-43h33.8l31.8-31.4c43.801 8.699 89.7-5.099 121.201-36.601 52.499-52.5 52.499-138.3-.001-190.8zm-42.301 106.2c-17.699 17.401-46.199 17.401-63.9 0-17.399-17.699-17.399-46.199 0-63.898 17.1-16.8 46.8-16.8 63.9 0 17.4 17.698 17.4 46.199 0 63.898z" fill="#ff9100"/></g><g fill="#9abadb"><path d="m64.412 150h120v30h-120z"/><path d="m64.412 210h120v30h-120z"/><path d="m64.412 270h60v30h-60z"/></g></g></svg>