<?xml version="1.0" encoding="iso-8859-1"?>
<!-- Generator: Adobe Illustrator 19.0.0, SVG Export Plug-In . SVG Version: 6.00 Build 0)  -->
<svg version="1.1" id="Capa_1" xmlns="http://www.w3.org/2000/svg" xmlns:xlink="http://www.w3.org/1999/xlink" x="0px" y="0px"
	 viewBox="0 0 512 512" style="enable-background:new 0 0 512 512;" xml:space="preserve">
<g>
	<g>
		<path d="M363.053,62.521c-26.43,0-47.933,21.503-47.933,47.934c0,26.431,21.503,47.933,47.933,47.933
			c26.431,0,47.934-21.502,47.934-47.933C410.987,84.024,389.483,62.521,363.053,62.521z M363.053,128.388
			c-9.888,0-17.933-8.045-17.933-17.933c0-9.889,8.045-17.934,17.933-17.934c9.889,0,17.934,8.045,17.934,17.934
			C380.986,120.343,372.941,128.388,363.053,128.388z"/>
	</g>
</g>
<g>
	<g>
		<path d="M363.053,0C287.61,0,226.157,61.005,225.408,136.274h-56.296l-35.911-33.87H90.348
			c-5.999-15.185-20.812-25.96-38.103-25.96c-22.585,0-40.96,18.375-40.96,40.96c0,22.585,18.375,40.96,40.96,40.96
			c17.292,0,32.104-10.776,38.103-25.96h30.937l35.911,33.87h71.193c3.469,16.417,9.926,32.065,19.173,46.29H224.6v30h49.302
			c8.521,7.249,17.903,13.455,27.995,18.458v27.833H157.196l-35.912,33.87H90.348c-5.999-15.185-20.812-25.96-38.103-25.96
			c-22.585,0-40.96,18.375-40.96,40.96c0,22.585,18.375,40.96,40.96,40.96c17.292,0,32.104-10.776,38.103-25.96H133.2l35.911-33.87
			h139.071l11.857,15.611l-18.142,23.885v6.795h-140.43l-47.544,46.734c-5.805-3.159-12.455-4.956-19.516-4.956
			c-22.585,0-40.96,18.375-40.96,40.96c0,22.585,18.375,40.96,40.96,40.96c22.585,0,40.96-18.375,40.96-40.96
			c0-4.523-0.748-8.873-2.108-12.944l40.484-39.794h128.155v5.045l18.142,23.884l-18.142,23.885V512h72.496l49.813-49.813V261.022
			c21.043-10.43,39.04-26.042,52.45-45.596c15.739-22.949,24.058-49.839,24.058-77.763C500.715,61.755,438.96,0,363.053,0z
			 M52.245,128.365c-6.043,0-10.96-4.917-10.96-10.96c0-6.043,4.917-10.96,10.96-10.96c6.043,0,10.96,4.917,10.96,10.96
			C63.205,123.448,58.288,128.365,52.245,128.365z M52.245,348.685c-6.043,0-10.96-4.917-10.96-10.96
			c0-6.043,4.917-10.96,10.96-10.96c6.043,0,10.96,4.917,10.96,10.96C63.205,343.768,58.288,348.685,52.245,348.685z
			 M94.407,458.845c-6.043,0-10.96-4.917-10.96-10.96c0-6.043,4.917-10.96,10.96-10.96c6.043,0,10.96,4.917,10.96,10.96
			C105.367,453.928,100.451,458.845,94.407,458.845z M403.56,237.44l-9.352,3.801V449.76L361.968,482h-30.069v-23.939l25.814-33.986
			l-25.814-33.986v-21.637l25.814-33.986l-25.814-33.986v-59.239l-9.352-3.801c-40.796-16.581-67.157-55.746-67.157-99.777
			C255.39,78.297,303.687,30,363.053,30c59.365,0,107.663,48.297,107.663,107.663C470.715,181.695,444.355,220.859,403.56,237.44z"
			/>
	</g>
</g>
<g>
	<g>
		<rect x="138.47" y="212.56" width="58.28" height="30"/>
	</g>
</g>
<g>
	<g>
		<path d="M90.348,212.565c-5.999-15.184-20.812-25.96-38.103-25.96c-22.585,0-40.96,18.375-40.96,40.96
			c0,22.585,18.374,40.96,40.96,40.96c17.292,0,32.104-10.776,38.103-25.96h20.262v-30H90.348z M52.245,238.524
			c-6.043,0-10.96-4.917-10.96-10.96c0-6.043,4.916-10.96,10.96-10.96c6.043,0,10.96,4.917,10.96,10.96
			C63.205,233.607,58.288,238.524,52.245,238.524z"/>
	</g>
</g>
<g>
</g>
<g>
</g>
<g>
</g>
<g>
</g>
<g>
</g>
<g>
</g>
<g>
</g>
<g>
</g>
<g>
</g>
<g>
</g>
<g>
</g>
<g>
</g>
<g>
</g>
<g>
</g>
<g>
</g>
</svg>
