<?xml version="1.0" encoding="iso-8859-1"?>
<!-- Generator: Adobe Illustrator 19.0.0, SVG Export Plug-In . SVG Version: 6.00 Build 0)  -->
<svg version="1.1" id="Capa_1" xmlns="http://www.w3.org/2000/svg" xmlns:xlink="http://www.w3.org/1999/xlink" x="0px" y="0px"
	 viewBox="0 0 512 512" style="enable-background:new 0 0 512 512;" xml:space="preserve">
<path style="fill:#DFDAE0;" d="M430.501,512H50.499c-8.284,0-15-6.716-15-15V15c0-8.284,6.716-15,15-15H280.5
	c3.979,0,7.794,1.58,10.606,4.394l150.001,150c2.813,2.812,4.394,6.628,4.394,10.606v176c0,8.284-6.716,15-15,15H255.5v70h175.001
	c8.284,0,15,6.716,15,15v56C445.501,505.284,438.785,512,430.501,512z"/>
<g>
	<path style="fill:#B5BAC4;" d="M430.501,512c8.284,0,15-6.716,15-15v-56c0-8.284-6.716-15-15-15H256v86H430.501z"/>
	<path style="fill:#B5BAC4;" d="M430.501,356c8.284,0,15-6.716,15-15V165c0-3.979-1.58-7.794-4.394-10.606l-150.001-150
		C288.294,1.58,284.478,0,280.5,0H256v356H430.501z"/>
</g>
<path style="fill:#FFF35D;" d="M461.501,456H240.5c-8.284,0-15-6.716-15-15V341c0-8.284,6.716-15,15-15h221.001
	c8.284,0,15,6.716,15,15v100C476.501,449.285,469.785,456,461.501,456z"/>
<path style="fill:#FFDC4C;" d="M461.501,326H256v130.001h205.501c8.284,0,15-6.716,15-15V341
	C476.501,332.716,469.785,326,461.501,326z"/>
<g>
</g>
<g>
</g>
<g>
</g>
<g>
</g>
<g>
</g>
<g>
</g>
<g>
</g>
<g>
</g>
<g>
</g>
<g>
</g>
<g>
</g>
<g>
</g>
<g>
</g>
<g>
</g>
<g>
</g>
</svg>
