<?xml version="1.0" encoding="iso-8859-1"?>
<!-- Generator: Adobe Illustrator 19.0.0, SVG Export Plug-In . SVG Version: 6.00 Build 0)  -->
<svg version="1.1" id="Capa_1" xmlns="http://www.w3.org/2000/svg" xmlns:xlink="http://www.w3.org/1999/xlink" x="0px" y="0px"
	 viewBox="0 0 512 512" style="enable-background:new 0 0 512 512;" xml:space="preserve">
<linearGradient id="SVGID_1_" gradientUnits="userSpaceOnUse" x1="56" y1="258" x2="456" y2="258" gradientTransform="matrix(1 0 0 -1 0 514)">
	<stop  offset="0" style="stop-color:#80D8FF"/>
	<stop  offset="1" style="stop-color:#EA80FC"/>
</linearGradient>
<path style="fill:url(#SVGID_1_);" d="M172.102,222.051c0-6.6,7.8-9.4,15.6-9.4s15.6,2.801,15.6,9.4V349.25
	c0,6.398-7.8,9.6-15.6,9.6s-15.6-3.201-15.6-9.6V222.051z M326.498,218.65v130.6c0,4.799-6.399,9.6-15.199,9.6
	c-7.6,0-13.8-4.801-13.8-9.6v-4.4c-4,8.199-15.2,16-27.999,16c-18.6,0-34.8-20.201-34.8-42.4v-14
	c0-22.998,15.8-41.998,35.399-41.998c12.199,0,21.199,7.398,25.399,15.199v-59c0-5.6,7-9.398,15.8-9.398
	S326.498,213.051,326.498,218.65z M265.699,318.449c0,7.801,6.4,15.4,14.4,15.4c8.6,0,15.399-9.4,15.399-12.801v-16.6
	c0-9.398-8-15-15.2-15c-8.199,0-14.6,7.4-14.6,15v14.001H265.699z M436,512H76c-11.046,0-20-8.954-20-20V20C56,8.954,64.954,0,76,0
	h218.578c5.305,0,10.392,2.107,14.143,5.857l141.422,141.422c3.75,3.751,5.857,8.838,5.857,14.143V492
	C456,503.046,447.046,512,436,512z M96,472h320V169.706L286.294,40H96V472z"/>
<g>
</g>
<g>
</g>
<g>
</g>
<g>
</g>
<g>
</g>
<g>
</g>
<g>
</g>
<g>
</g>
<g>
</g>
<g>
</g>
<g>
</g>
<g>
</g>
<g>
</g>
<g>
</g>
<g>
</g>
</svg>
