<svg xmlns="http://www.w3.org/2000/svg" height="464pt" version="1.1" viewBox="-20 0 464 464" width="464pt">
<g id="surface1">
<path d="M 352 416 L 16 416 C 7.164062 416 0 408.835938 0 400 L 0 96 L 104 0 L 352 0 C 360.835938 0 368 7.164062 368 16 L 368 400 C 368 408.835938 360.835938 416 352 416 Z M 352 416 " style=" stroke:none;fill-rule:nonzero;fill:rgb(100%,91.372549%,80%);fill-opacity:1;" />
<path d="M 104 416 L 352 416 C 360.835938 416 368 408.835938 368 400 L 368 168.726562 C 324.300781 288.425781 226.296875 380.21875 104 416 Z M 104 416 " style=" stroke:none;fill-rule:nonzero;fill:rgb(100%,88.627451%,74.117647%);fill-opacity:1;" />
<path d="M 104 80 L 104 0 L 0 96 L 88 96 C 96.835938 96 104 88.835938 104 80 Z M 104 80 " style=" stroke:none;fill-rule:nonzero;fill:rgb(100%,91.372549%,80%);fill-opacity:1;" />
<path d="M 104 80 L 104 0 L 0 96 L 88 96 C 96.835938 96 104 88.835938 104 80 Z M 104 80 " style=" stroke:none;fill-rule:nonzero;fill:rgb(100%,66.27451%,57.647059%);fill-opacity:1;" />
<path d="M 280 320 L 320 320 L 320 464 L 384 464 L 384 320 L 424 320 L 352 240 Z M 280 320 " style=" stroke:none;fill-rule:nonzero;fill:rgb(100%,80.392157%,0%);fill-opacity:1;" />
<path d="M 304 216 L 64 216 C 59.582031 216 56 212.417969 56 208 C 56 203.582031 59.582031 200 64 200 L 304 200 C 308.417969 200 312 203.582031 312 208 C 312 212.417969 308.417969 216 304 216 Z M 304 216 " style=" stroke:none;fill-rule:nonzero;fill:rgb(100%,47.45098%,33.72549%);fill-opacity:1;" />
<path d="M 288 264 L 64 264 C 59.582031 264 56 260.417969 56 256 C 56 251.582031 59.582031 248 64 248 L 288 248 C 292.417969 248 296 251.582031 296 256 C 296 260.417969 292.417969 264 288 264 Z M 288 264 " style=" stroke:none;fill-rule:nonzero;fill:rgb(100%,47.45098%,33.72549%);fill-opacity:1;" />
<path d="M 256 312 L 64 312 C 59.582031 312 56 308.417969 56 304 C 56 299.582031 59.582031 296 64 296 L 256 296 C 260.417969 296 264 299.582031 264 304 C 264 308.417969 260.417969 312 256 312 Z M 256 312 " style=" stroke:none;fill-rule:nonzero;fill:rgb(100%,47.45098%,33.72549%);fill-opacity:1;" />
<path d="M 288 360 L 64 360 C 59.582031 360 56 356.417969 56 352 C 56 347.582031 59.582031 344 64 344 L 288 344 C 292.417969 344 296 347.582031 296 352 C 296 356.417969 292.417969 360 288 360 Z M 288 360 " style=" stroke:none;fill-rule:nonzero;fill:rgb(100%,47.45098%,33.72549%);fill-opacity:1;" />
<path d="M 304 168 L 128 168 C 123.582031 168 120 164.417969 120 160 C 120 155.582031 123.582031 152 128 152 L 304 152 C 308.417969 152 312 155.582031 312 160 C 312 164.417969 308.417969 168 304 168 Z M 304 168 " style=" stroke:none;fill-rule:nonzero;fill:rgb(100%,47.45098%,33.72549%);fill-opacity:1;" />
<path d="M 96 168 L 64 168 C 59.582031 168 56 164.417969 56 160 C 56 155.582031 59.582031 152 64 152 L 96 152 C 100.417969 152 104 155.582031 104 160 C 104 164.417969 100.417969 168 96 168 Z M 96 168 " style=" stroke:none;fill-rule:nonzero;fill:rgb(100%,47.45098%,33.72549%);fill-opacity:1;" />
</g>
</svg>