<svg id="Capa_1" enable-background="new 0 0 512 512" height="512" viewBox="0 0 512 512" width="512" xmlns="http://www.w3.org/2000/svg"><g><g><path d="m289.582 255.148c-11.102-1.307-21.862-6.205-30.38-14.723-20.124-20.124-20.123-52.751 0-72.874 9.414-9.414 21.563-14.422 33.889-15.028 10.306-14.113 24.552-25.162 41.123-31.531-33.853-15.73-75.345-9.632-103.274 18.297-31.352 31.352-35.192 79.794-11.527 115.337l-160.642 160.642c-7.065 7.065-7.065 18.519 0 25.584 7.065 7.065 18.52 7.065 25.584 0l21.28-21.28 16.247 16.247c7.065 7.065 18.519 7.065 25.584 0s7.065-18.519 0-25.584l-16.247-16.247 19.457-19.457 16.247 16.247c7.065 7.065 18.52 7.065 25.584 0 7.065-7.065 7.065-18.519 0-25.584l-16.247-16.247 68.736-68.735c24.928 16.6 56.196 19.65 83.47 9.187-16.023-7.46-29.527-19.412-38.884-34.251z" fill="#f6e080"/><g fill="#eccd61"><path d="m263.544 163.686c8.666-6.918 19.04-10.646 29.548-11.163 10.306-14.113 24.552-25.162 41.123-31.531-9.245-4.296-19.06-6.951-29.013-7.991-18.486 12.282-33.107 29.912-41.658 50.685z"/><path d="m328.466 289.398c-16.023-7.459-29.527-19.411-38.884-34.25-10.312-1.214-20.327-5.531-28.526-12.965 7.246 21.37 20.777 39.836 38.389 53.208 9.865-.411 19.678-2.409 29.021-5.993z"/></g><path d="m367.029 114.925c-50.534 0-91.499 40.966-91.499 91.499 0 41.455 27.572 76.465 65.375 87.708v181.779l26.176 28.089 28.354-28.089v-24.799l-24.149-18.729 24.149-18.729-24.149-18.729 24.149-18.729-24.149-18.729 24.149-18.729v-45.318c36.626-11.952 63.092-46.381 63.092-86.997.001-50.532-40.965-91.498-91.498-91.498zm.548 91.316c-14.179 0-25.674-11.494-25.674-25.673s11.494-25.674 25.674-25.674c14.179 0 25.673 11.494 25.673 25.674 0 14.179-11.494 25.673-25.673 25.673z" fill="#ecb85e"/><g><path d="m367.029 114.925c-3.037 0-6.039.152-9 .441 46.309 4.522 82.499 43.562 82.499 91.058 0 39.399-24.904 72.976-59.828 85.862-1.962.724-3.265 2.59-3.265 4.681v41.772l-19.055 14.778c-2.581 2.002-2.581 5.9 0 7.902l19.055 14.778-19.055 14.778c-2.581 2.002-2.581 5.9 0 7.902l19.055 14.778-19.055 14.778c-2.581 2.002-2.581 5.9 0 7.902l19.055 14.778v24.799l-18.995 18.817 8.641 9.272 28.354-28.089v-24.799l-24.149-18.729 24.149-18.729-24.149-18.729 24.149-18.729-24.149-18.729 24.149-18.729v-45.318c36.626-11.952 63.092-46.381 63.092-86.997.001-50.533-40.965-91.499-91.498-91.499z" fill="#eaa949"/></g></g><g><path d="m333.553 299.649v81.711c0 4.151 3.365 7.515 7.515 7.515s7.515-3.364 7.515-7.515v-87.143c0-3.325-2.185-6.256-5.373-7.203-17.018-5.062-32.328-15.688-43.109-29.924-11.137-14.704-17.024-32.256-17.024-50.756 0-46.41 37.757-84.167 84.167-84.167 8.67 0 17.156 1.32 25.211 3.842-2.268 8.655-5.83 16.854-10.504 24.352-4.298-2.032-9.097-3.174-14.158-3.174-18.328 0-33.24 14.911-33.24 33.24 0 18.328 14.911 33.239 33.24 33.239s33.24-14.911 33.24-33.239c0-7.81-2.714-14.993-7.239-20.673 5.548-8.582 9.82-17.986 12.64-27.927 9.822 5.171 18.645 12.303 25.903 21.146 2.633 3.208 7.369 3.673 10.577 1.04s3.674-7.368 1.041-10.577c-9.501-11.574-21.274-20.671-34.413-26.863.542-4.291.836-8.644.836-13.048 0-57.083-46.442-103.525-103.527-103.525s-103.526 46.442-103.526 103.526c0 15.536 3.527 30.941 10.212 44.853-20.973 31.103-22.829 72.149-3.73 105.152l-68.954 68.954c-2.935 2.936-2.935 7.693 0 10.629 2.935 2.934 7.693 2.934 10.628 0l73.167-73.167c2.532-2.532 2.926-6.499.941-9.479-22.113-33.212-17.651-77.828 10.609-106.087 20.821-20.821 50.923-28.95 78.89-22.387-9.908 6.149-18.661 13.989-25.844 23.121-13.351 1.463-25.796 7.398-35.355 16.956-23.062 23.062-23.062 60.586 0 83.649 8.633 8.632 19.4 14.237 31.31 16.361.941 1.379 1.905 2.746 2.92 4.086 6.029 7.959 13.27 14.95 21.351 20.749-20.849 3.447-42.49-1.016-60.337-12.9-2.981-1.984-6.948-1.592-9.479.94l-68.872 68.872c-2.935 2.935-2.935 7.693 0 10.628l16.279 16.28c4.117 3.95 4.117 11.057-.001 15.007-3.95 4.116-11.058 4.117-15.007-.001l-16.279-16.279c-2.935-2.934-7.693-2.934-10.628 0l-19.496 19.496c-2.911 2.799-2.911 7.829 0 10.629l16.278 16.277c4.138 4.138 4.138 10.871.001 15.008-4.138 4.139-10.87 4.137-15.007 0l-16.279-16.28c-2.935-2.934-7.693-2.934-10.628 0l-21.323 21.323c-4.138 4.138-10.87 4.137-15.007.001-4.138-4.138-4.138-10.871 0-15.008l66.54-66.54c2.935-2.936 2.935-7.693 0-10.629-2.935-2.934-7.693-2.934-10.628 0l-66.541 66.541c-9.997 9.997-9.997 26.265 0 36.264 9.998 9.996 26.265 9.996 36.263 0l16.009-16.009 10.966 10.966c9.997 9.996 26.265 9.997 36.263-.001 9.997-9.997 9.997-26.265 0-36.264l-10.965-10.964 8.868-8.868 10.965 10.964c9.545 9.949 26.719 9.948 36.264.001 9.947-9.544 9.948-26.72 0-36.263l-10.965-10.966 59.346-59.346c24.855 14.378 54.97 17.265 82.265 7.773 1.721.739 3.457 1.443 5.218 2.081zm34.24-137.432c1.64 0 3.223.238 4.736.646-6.493 7.189-14.205 13.348-22.916 18.153-.006-.198-.03-.391-.03-.59 0-10.04 8.169-18.209 18.21-18.209zm18.21 18.211c0 10.04-8.169 18.209-18.21 18.209-4.372 0-8.388-1.551-11.53-4.129 10.642-5.777 20.036-13.268 27.874-22.06 1.182 2.413 1.866 5.115 1.866 7.98zm-160.433-46.676c-.469.469-.914.954-1.372 1.431-3.839-10.052-5.844-20.816-5.844-31.656 0-48.797 39.699-88.496 88.496-88.496s88.496 39.699 88.496 88.496c0 2.54-.12 5.059-.333 7.558-8.912-2.59-18.246-3.947-27.771-3.947-11.414 0-22.381 1.944-32.596 5.508-37.016-15.78-80.476-7.495-109.076 21.106zm52.165 29.849c-3.125 6.518-5.557 13.428-7.203 20.634-3.737-1.684-7.358-3.615-10.834-5.809 1.422-2.009 3.02-3.93 4.818-5.728 3.855-3.855 8.34-6.92 13.219-9.097zm-13.218 71.489c-11.629-11.629-15.385-28.187-11.289-43.011 4.808 2.918 9.837 5.433 15.053 7.527-.15 2.224-.233 4.467-.233 6.729 0 12.702 2.372 25.02 6.935 36.523-3.81-2.028-7.327-4.629-10.466-7.768z"/><path d="m460.197 171.627c-1.452-3.889-5.782-5.861-9.67-4.409s-5.862 5.781-4.41 9.67c3.512 9.401 5.293 19.309 5.293 29.447 0 36.539-23.322 68.699-58.035 80.026-3.092 1.009-5.184 3.892-5.184 7.144v41.727l-21.288 16.509c-3.839 2.821-3.838 9.056 0 11.877l16.54 12.827-16.541 12.828c-3.838 2.821-3.838 9.056 0 11.877l16.54 12.827-16.54 12.827c-3.839 2.821-3.838 9.056 0 11.877l21.288 16.509v18.034l-20.68 20.486-18.927-20.31v-61.98c0-4.151-3.365-7.515-7.515-7.515s-7.515 3.364-7.515 7.515v64.939c0 1.901.721 3.732 2.017 5.124l26.228 28.145c2.75 3.073 7.915 3.177 10.787.215l28.411-28.145c1.425-1.411 2.226-3.334 2.226-5.339v-24.849c0-2.323-1.074-4.515-2.91-5.939l-16.54-12.827 16.54-12.827c3.839-2.821 3.838-9.056 0-11.877l-16.54-12.827 16.54-12.828c3.839-2.821 3.838-9.056 0-11.877l-16.54-12.827 16.54-12.827c1.836-1.424 2.91-3.616 2.91-5.939v-40.115c38.035-14.758 63.219-51.247 63.219-92.465-.001-11.94-2.101-23.618-6.244-34.708z"/></g></g></svg>