<svg id="Capa_1" enable-background="new 0 0 512 512" height="512" viewBox="0 0 512 512" width="512" xmlns="http://www.w3.org/2000/svg"><g><path d="m221.577 132.684-12.262-12.262c-32.762-32.762-85.881-32.762-118.643 0l-59.879 59.879c-3.015 3.015-1.271 8.177 2.954 8.747l97.002 13.079z" fill="#ff7c48"/><path d="m379.316 290.423 12.262 12.262c32.762 32.762 32.762 85.881 0 118.643l-59.879 59.879c-3.015 3.015-8.177 1.271-8.747-2.954l-13.079-97.002z" fill="#ff415b"/><path d="m457.856 54.144-134.369 159.864-118.467 92.972-91.172-91.172c12.26-46.22 38.994-82.657 73.15-111.379 55.529-46.715 130.654-73.019 194.881-87.756z" fill="#6e76e4"/><path d="m296.192 398.152-91.172-91.172 252.836-252.836 37.471 75.977c-14.736 64.227-41.041 139.351-87.756 194.881-28.722 34.156-65.159 60.89-111.379 73.15z" fill="#5f5ace"/><path d="m355.852 156.148-32.365 57.86-57.86 32.365c-24.913-24.913-24.913-65.312 0-90.225s65.312-24.913 90.225 0z" fill="#edf5ff"/><path d="m355.852 246.373c-24.913 24.913-65.312 24.913-90.225 0l90.225-90.225c24.913 24.913 24.913 65.312 0 90.225z" fill="#d5e8fe"/><path d="m205.02 306.98-9.526 38.178-41.567 12.915-59.936-59.936c-2.943-2.943-4.006-7.284-2.746-11.254l22.604-71.074z" fill="#989eec"/><path d="m296.192 398.152-71.074 22.604c-3.97 1.26-8.312.197-11.254-2.746l-59.936-59.936 51.093-51.093z" fill="#6e76e4"/><path d="m51.137 332.585-36.19 1.185c-8.529.28-15.218 7.421-14.939 15.95.134 4.082 1.839 7.742 4.516 10.419 2.916 2.916 6.987 4.666 11.435 4.52l36.19-1.185c8.529-.28 15.218-7.421 14.939-15.95-.281-8.529-7.42-15.217-15.951-14.939z" fill="#ffd845"/><path d="m178.23 497.053 1.185-36.19c.279-8.53-6.409-15.671-14.939-15.95s-15.671 6.409-15.95 14.939l-1.185 36.19c-.145 4.448 1.603 8.518 4.52 11.435 2.677 2.677 6.337 4.382 10.419 4.516 8.529.278 15.67-6.411 15.95-14.94z" fill="#ffb454"/><path d="m118.146 393.854-22.691 30.461-33.508 25.738c-6.032-6.032-6.032-15.822 0-21.853l34.346-34.346c6.031-6.031 15.821-6.032 21.853 0z" fill="#ffd845"/><path d="m118.146 415.707-34.346 34.346c-6.032 6.032-15.822 6.032-21.853 0l56.2-56.2c6.031 6.033 6.03 15.823-.001 21.854z" fill="#ffb454"/><path d="m504.695 7.305-34.091 59.587-53.708 28.213c-20.309-20.309-33.377-47.844-35.016-78.432 41.609-9.572 78.65-14.27 102.834-16.558 7.794-.743 14.955 2.164 19.981 7.19z" fill="#ff7c48"/><path d="m495.327 130.121c-30.587-1.639-58.123-14.707-78.432-35.016l87.799-87.799c5.026 5.026 7.933 12.187 7.19 19.981-2.286 24.184-6.985 61.225-16.557 102.834z" fill="#ff415b"/></g></svg>