<?xml version="1.0" encoding="iso-8859-1"?>
<!-- Generator: Adobe Illustrator 19.0.0, SVG Export Plug-In . SVG Version: 6.00 Build 0)  -->
<svg version="1.1" id="Capa_1" xmlns="http://www.w3.org/2000/svg" xmlns:xlink="http://www.w3.org/1999/xlink" x="0px" y="0px"
	 viewBox="0 0 512 512" style="enable-background:new 0 0 512 512;" xml:space="preserve">
<path style="fill:#6F7D96;" d="M286,46v421c0,24.899-20.099,45-45,45H61c-24.901,0-45-20.101-45-45V46C16,21.099,36.099,0,61,0h180
	C265.901,0,286,21.099,286,46z"/>
<path style="fill:#66728B;" d="M286,46v421c0,24.899-20.099,45-45,45h-90V0h90C265.901,0,286,21.099,286,46z"/>
<path style="fill:#495A79;" d="M151,91c-24.901,0-45,20.099-45,45v240c0,24.899,20.099,45,45,45s45-20.101,45-45V136
	C196,111.099,175.901,91,151,91z"/>
<path style="fill:#42516D;" d="M196,136v240c0,24.899-20.099,45-45,45V91C175.901,91,196,111.099,196,136z"/>
<circle style="fill:#C5C9F7;" cx="91" cy="76" r="15"/>
<circle style="fill:#A8AFF1;" cx="211" cy="76" r="15"/>
<circle style="fill:#C5C9F7;" cx="91" cy="436" r="15"/>
<circle style="fill:#A8AFF1;" cx="211" cy="436" r="15"/>
<path style="fill:#FFA81F;" d="M331,91c-90.901,0-165,74.099-165,165c0,90.899,74.099,165,165,165s165-74.101,165-165
	C496,165.099,421.901,91,331,91z"/>
<path style="fill:#FF9800;" d="M496,256c0,90.899-74.099,165-165,165V91C421.901,91,496,165.099,496,256z"/>
<path style="fill:#FFDA2D;" d="M331,361c-57.891,0-105-47.109-105-105s47.109-105,105-105s105,47.109,105,105S388.891,361,331,361z"
	/>
<path style="fill:#FFBC33;" d="M436,256c0-57.891-47.109-105-105-105v210C388.891,361,436,313.891,436,256z"/>
<g>
</g>
<g>
</g>
<g>
</g>
<g>
</g>
<g>
</g>
<g>
</g>
<g>
</g>
<g>
</g>
<g>
</g>
<g>
</g>
<g>
</g>
<g>
</g>
<g>
</g>
<g>
</g>
<g>
</g>
</svg>
