<svg id="Layer_1" data-name="Layer 1" xmlns="http://www.w3.org/2000/svg" viewBox="0 0 378.87 63.55"><defs><style>.cls-1{fill:#001c32;}</style></defs><path class="cls-1" d="M105.8,25a2.29,2.29,0,0,1,2.25-2.25h.52A2.49,2.49,0,0,1,110.7,24l14.4,21.65L139.5,24a2.44,2.44,0,0,1,2.13-1.21h.52A2.28,2.28,0,0,1,144.39,25V61.24a2.3,2.3,0,0,1-2.24,2.31,2.36,2.36,0,0,1-2.31-2.31V31.18l-12.9,19a2.22,2.22,0,0,1-1.9,1.15,2.31,2.31,0,0,1-2-1.15L110.24,31.24V61.3a2.22,2.22,0,1,1-4.44,0Z"/><path class="cls-1" d="M167.72,25a2.28,2.28,0,1,1,4.55,0V61.24a2.28,2.28,0,1,1-4.55,0Z"/><path class="cls-1" d="M195.6,25a2.28,2.28,0,0,1,2.24-2.25h.64a2.79,2.79,0,0,1,2.3,1.32l24.48,31.22V24.9a2.22,2.22,0,1,1,4.43,0V61.3a2,2,0,0,1-2.07,2.13h-.23A3.1,3.1,0,0,1,225,62.05l-25-32V61.3a2.22,2.22,0,1,1-4.43,0Z"/><path class="cls-1" d="M253,25a2.28,2.28,0,1,1,4.55,0V61.24a2.28,2.28,0,1,1-4.55,0Z"/><path class="cls-1" d="M280.9,25a2.28,2.28,0,0,1,2.24-2.25h.52A2.49,2.49,0,0,1,285.79,24l14.4,21.65L314.59,24a2.44,2.44,0,0,1,2.13-1.21h.52A2.29,2.29,0,0,1,319.49,25V61.24a2.31,2.31,0,0,1-2.25,2.31,2.35,2.35,0,0,1-2.3-2.31V31.18L302,50.13a2.21,2.21,0,0,1-1.9,1.15,2.3,2.3,0,0,1-1.95-1.15L285.33,31.24V61.3a2.22,2.22,0,1,1-4.43,0Z"/><path class="cls-1" d="M339.93,60.26,356.29,24.5a3,3,0,0,1,2.88-2h.23a2.9,2.9,0,0,1,2.82,2l16.36,35.71a3.09,3.09,0,0,1,.29,1.15,2.19,2.19,0,0,1-2.19,2.19,2.5,2.5,0,0,1-2.25-1.67l-4.2-9.28H348.11L343.91,62a2.29,2.29,0,0,1-2.19,1.56,2.06,2.06,0,0,1-2.07-2.08A2.62,2.62,0,0,1,339.93,60.26Zm28.51-11.8-9.27-20.62L349.9,48.46Z"/><path class="cls-1" d="M56.55,17,53.43,30.78l-4-16.63-14-5.64-1.28,5.64h0l-2.48,11L28.4,5.64,14.43,0,13.15,5.64h0L.05,63.55H15.3l4.41-19.5L23,63.55H38.28L42,46.91l4,16.64H61.27l9.25-40.9ZM18.33,43.74,14.17,62.13H1.82L14.53,6v0l.9-4L26.75,6.5Zm2.2-3.31,7-31.17,3.33,19.5-7,31.17ZM40.66,46.6,37.15,62.13H24.81l8.3-36.68,2.48-11,.91-4L47.81,15Zm2.09-2.81,6-26.51,4,16.63h0l-6,26.51ZM60.14,62.13H47.79l7-31L57.56,19l11.31,4.57Z"/></svg>