<svg id="Layer_1" data-name="Layer 1" xmlns="http://www.w3.org/2000/svg" viewBox="0 0 233.35 155.65"><defs><style>.cls-1{fill:#fafaff;}</style></defs><path class="cls-1" d="M0,122.72a2,2,0,0,1,1.92-1.92h.44a2.13,2.13,0,0,1,1.82,1l12.31,18.5,12.3-18.5a2.11,2.11,0,0,1,1.82-1h.45A2,2,0,0,1,33,122.72v31a2,2,0,0,1-1.92,2,2,2,0,0,1-2-2V128l-11,16.19a1.9,1.9,0,0,1-1.62,1,2,2,0,0,1-1.67-1L3.79,128v25.69a1.9,1.9,0,1,1-3.79,0Z"/><path class="cls-1" d="M52.91,122.67a1.95,1.95,0,1,1,3.89,0v31a1.95,1.95,0,1,1-3.89,0Z"/><path class="cls-1" d="M76.73,122.72a2,2,0,0,1,1.92-1.92h.54a2.39,2.39,0,0,1,2,1.13l20.92,26.68v-26a1.9,1.9,0,1,1,3.79,0v31.11a1.75,1.75,0,0,1-1.77,1.82h-.2a2.69,2.69,0,0,1-2-1.18L80.52,127.05v26.68a1.9,1.9,0,1,1-3.79,0Z"/><path class="cls-1" d="M125.81,122.67a1.94,1.94,0,1,1,3.88,0v31a1.94,1.94,0,1,1-3.88,0Z"/><path class="cls-1" d="M149.63,122.72a2,2,0,0,1,1.92-1.92H152a2.13,2.13,0,0,1,1.82,1l12.31,18.5,12.3-18.5a2.11,2.11,0,0,1,1.82-1h.45a2,2,0,0,1,1.92,1.92v31a2,2,0,0,1-1.92,2,2,2,0,0,1-2-2V128l-11,16.19a1.9,1.9,0,0,1-1.62,1,2,2,0,0,1-1.68-1l-11-16.14v25.69a1.9,1.9,0,1,1-3.79,0Z"/><path class="cls-1" d="M200.08,152.84l14-30.56a2.54,2.54,0,0,1,2.46-1.72h.2a2.49,2.49,0,0,1,2.41,1.72l14,30.52a2.7,2.7,0,0,1,.24,1,1.87,1.87,0,0,1-1.87,1.87,2.13,2.13,0,0,1-1.92-1.43L226,146.3h-18.9l-3.59,8a2,2,0,0,1-1.87,1.33,1.77,1.77,0,0,1-1.78-1.77A2.24,2.24,0,0,1,200.08,152.84Zm24.36-10.09-7.92-17.62-7.93,17.62Z"/><path class="cls-1" d="M146.73,24.05l-4.4,19.46L136.71,20,117,12l-5.32,23.52L106.94,8h0L87.19,0,66.88,89.83H88.42l6.24-27.57,4.7,27.57h21.55l5.32-23.52,5.62,23.52H153.4L166.48,32ZM93.2,61.93l-6,26.4H68.75L88.27,2.05l16.92,6.84Zm2.33-3.5,10.54-46.62,4.71,27.56L100.23,86ZM124.77,66l-5.06,22.35H101.24L118,14.08,135,20.91Zm7.83,20.53h0L127,63l9-39.69,5.62,23.52Zm19.6,1.82H133.73L147.8,26.1l16.93,6.84Z"/></svg>